<svg id="icon-phone" xmlns="http://www.w3.org/2000/svg" xmlns:xlink="http://www.w3.org/1999/xlink" width="20.75" height="20.753" viewBox="0 0 20.75 20.753">
  <defs>
    <clipPath id="clip-path">
      <rect id="Rectangle_4034" data-name="Rectangle 4034" width="20.75" height="20.753" rx="10" fill="none"/>
    </clipPath>
  </defs>
  <g id="Group_14552" data-name="Group 14552" clip-path="url(#clip-path)">
    <path id="Path_21868" data-name="Path 21868" d="M20.378,13.141c.01-.036.019-.073.029-.111q.118-.444.2-.9c.012-.067.021-.135.031-.2q.062-.412.092-.83c.007-.1.011-.2.015-.3q.016-.369.006-.734c0-.122-.01-.242-.019-.363-.014-.225-.034-.45-.062-.672-.016-.125-.036-.248-.057-.372-.036-.216-.076-.43-.125-.642-.029-.122-.061-.242-.093-.362-.056-.208-.117-.415-.186-.619-.039-.116-.083-.231-.127-.346-.076-.2-.156-.4-.244-.593-.05-.112-.1-.221-.159-.331-.093-.189-.191-.376-.3-.558-.063-.109-.129-.215-.2-.322-.108-.174-.22-.345-.338-.512-.076-.108-.157-.214-.238-.319-.119-.155-.241-.309-.369-.457-.093-.108-.19-.212-.288-.316-.127-.135-.255-.269-.389-.4-.109-.105-.223-.205-.337-.306-.133-.116-.268-.232-.406-.343s-.253-.193-.382-.286-.28-.2-.425-.293-.277-.172-.418-.254-.3-.171-.449-.249S14.848,1.01,14.7.942,14.382.8,14.22.734s-.3-.113-.455-.166C13.594.508,13.422.452,13.248.4,13.1.358,12.942.32,12.787.283,12.606.24,12.422.2,12.237.166c-.156-.028-.314-.051-.473-.073C11.576.068,11.388.047,11.2.032c-.17-.013-.34-.021-.513-.026S10.328,0,10.151,0,9.786.016,9.606.03,9.27.056,9.1.076s-.353.05-.527.08-.334.061-.5.1S7.751.335,7.59.38s-.34.1-.507.153c-.148.05-.294.1-.439.161C6.472.76,6.3.829,6.131.9c-.133.06-.263.125-.393.19-.171.086-.342.174-.508.269-.12.069-.237.142-.355.216-.166.1-.331.211-.49.324-.11.078-.217.159-.323.241-.157.121-.313.245-.464.375-.1.087-.2.177-.294.267-.146.136-.29.274-.428.419C2.786,3.3,2.7,3.4,2.612,3.5c-.134.151-.266.3-.391.463-.079.1-.154.2-.23.309-.122.167-.241.336-.353.511-.066.1-.128.208-.191.314-.11.185-.217.373-.314.565-.052.1-.1.2-.148.308-.1.206-.189.415-.272.628-.038.1-.072.194-.107.291-.081.228-.156.458-.222.694-.025.088-.047.178-.069.268C.253,8.1.2,8.347.154,8.6c-.015.084-.027.17-.039.254-.039.262-.068.527-.087.8-.008.111-.013.223-.017.334C0,10.171,0,10.356,0,10.54c0,.167.014.33.024.494q.028.434.09.86c.021.14.038.281.064.419.036.188.082.375.128.561.026.1.051.209.08.312.057.2.119.4.188.6.024.07.05.139.076.208A10.24,10.24,0,0,0,1.74,16.117a.388.388,0,0,1,.03.072,10.448,10.448,0,0,0,2.8,2.8.343.343,0,0,1,.085.036,9.831,9.831,0,0,0,.99.589c.03.015.061.028.09.044.289.146.584.275.885.393.094.036.19.07.286.1q.4.141.8.248c.088.024.175.047.263.068a10.23,10.23,0,0,0,1.051.192c.276.039.553.056.829.072.12.006.239.016.36.019.168,0,.335,0,.5-.009.21-.007.42-.013.626-.032.108-.01.215-.026.322-.039.248-.03.5-.065.738-.113.084-.016.166-.039.249-.057.255-.057.508-.119.756-.194.084-.025.165-.057.248-.085.238-.079.474-.162.7-.258.112-.047.22-.1.33-.152.191-.088.383-.175.569-.274.214-.116.424-.243.631-.375.069-.043.142-.082.21-.128a10.254,10.254,0,0,0,.837-.624,10.38,10.38,0,0,0,3.114-4.283c0-.012.008-.024.013-.036q.179-.467.313-.952m-5.862,2.99a5.207,5.207,0,0,1-.971.093h0a8.251,8.251,0,0,1-2.893-.68A10.893,10.893,0,0,1,4,7.946a2.54,2.54,0,0,1,.753-2.576,2.721,2.721,0,0,1,1.28-.832.984.984,0,0,1,1.135.5A13.858,13.858,0,0,1,8.1,7.441a1.065,1.065,0,0,1-.3,1.107c-.2.2-.383.435-.587.641a.279.279,0,0,0-.057.355,5.685,5.685,0,0,0,1.377,1.914,10.5,10.5,0,0,0,3.115,1.975.207.207,0,0,0,.272-.069c.313-.332.631-.668.949-1a1.016,1.016,0,0,1,1.386-.27,17.823,17.823,0,0,1,1.68.9,1,1,0,0,1,.527,1.045,2.141,2.141,0,0,1-1.946,2.092" transform="translate(0 0)" fill="#fff"/>
  </g>
</svg>
