<svg id="icon-tiktok" xmlns="http://www.w3.org/2000/svg" width="50.5" height="50.5" viewBox="0 0 50.5 50.5">
  <circle id="Ellipse_299" data-name="Ellipse 299" cx="25.25" cy="25.25" r="25.25" transform="translate(0 0)" fill="none"/>
  <path id="Path_12721" data-name="Path 12721" d="M2639.522,3126.531h4.381c.161.72.26,1.434.482,2.106a6.374,6.374,0,0,0,4.784,4.3c.456.119.931.166,1.392.263.083.017.209.119.209.182.012,1.452.01,2.9.01,4.4a11.668,11.668,0,0,1-6.636-2.172v9.425a8.553,8.553,0,1,1-9.741-8.327,7.551,7.551,0,0,1,2.582.045v4.941a12.563,12.563,0,0,0-1.7-.1,3.836,3.836,0,0,0-.208,7.621,3.854,3.854,0,0,0,4.447-3.836q0-9.222,0-18.443Z" transform="translate(-2613.265 -3115.053)" fill="#fff"/>
</svg>
