<svg id="icon-line" xmlns="http://www.w3.org/2000/svg" width="50.5" height="50.5" viewBox="0 0 50.5 50.5">
  <circle id="Ellipse_300" data-name="Ellipse 300" cx="25.25" cy="25.25" r="25.25" transform="translate(0 0)" fill="none"/>
  <path id="Path_12712" data-name="Path 12712" d="M2325.654,2761.471a10.558,10.558,0,0,1-2.43,6.6,29.248,29.248,0,0,1-5.656,5.331,54.678,54.678,0,0,1-7.128,4.661,3.8,3.8,0,0,1-1.018.4c-.586.121-.868-.1-.8-.705.058-.537.174-1.069.254-1.6a4.91,4.91,0,0,0,.049-.688,1.319,1.319,0,0,0-1.258-1.51,20.863,20.863,0,0,1-4.249-1.052c-3.725-1.453-6.749-3.74-8.256-7.554-1.71-4.329-.721-8.229,2.375-11.6a15.672,15.672,0,0,1,9.237-4.784,18.046,18.046,0,0,1,12.105,1.979,13.044,13.044,0,0,1,6.041,6.613A11.155,11.155,0,0,1,2325.654,2761.471Zm-15.741-.258.09-.035c.786,1.063,1.6,2.105,2.346,3.2a1.437,1.437,0,0,0,1.59.792.3.3,0,0,1,.081,0c.313.02.44-.138.44-.439q-.005-3.129,0-6.259c0-.267-.113-.4-.39-.4-.257,0-.515.012-.772,0-.353-.021-.479.129-.475.479.016,1.056.009,2.113,0,3.169,0,.119.061.262-.085.376-.8-1.092-1.629-2.145-2.366-3.257a1.463,1.463,0,0,0-1.562-.774c-.479.063-.53.059-.53.551q0,2.764,0,5.527c0,1.141-.066,1.029,1.029,1.027.562,0,.6-.042.6-.6Q2309.911,2762.892,2309.913,2761.213Zm5.516.365h0c0,1.03.008,2.06,0,3.089,0,.361.133.51.5.5,1.029-.015,2.059,0,3.088-.007,1.32,0,1.119.155,1.146-1.188.007-.341-.144-.452-.466-.445-.623.013-1.247,0-1.869,0-.794,0-.783,0-.775-.8,0-.256.091-.324.333-.319.541.013,1.083.01,1.625,0,1.328-.016,1.126.2,1.151-1.17.007-.332-.128-.465-.456-.459-.623.011-1.247,0-1.87,0-.832,0-.824,0-.782-.836.011-.215.084-.272.29-.269.556.011,1.111,0,1.666,0,1.349-.007,1.122.142,1.151-1.179.007-.337-.132-.449-.462-.445-1.259.012-2.52.015-3.779,0-.376,0-.5.142-.495.506C2315.438,2759.573,2315.428,2760.576,2315.428,2761.578Zm-15.379.04c0,1,0,2.006,0,3.009,0,.482.062.541.537.542l3.049,0c1.317,0,1.126.1,1.148-1.157.007-.349-.129-.487-.48-.48-.717.016-1.437-.023-2.153.016-.415.023-.485-.124-.478-.5.021-1.289.009-2.575.008-3.864,0-1.315.1-1.08-1.139-1.118-.373-.011-.5.136-.5.5C2300.06,2759.585,2300.05,2760.6,2300.05,2761.618Zm5.625.021c0,.826,0,1.652,0,2.478,0,1.169-.09,1.047,1.045,1.049.552,0,.587-.038.587-.611,0-1.788.006-3.575,0-5.363-.006-1.277.184-1.1-1.161-1.127-.353-.006-.478.14-.474.486C2305.681,2759.582,2305.673,2760.61,2305.674,2761.64Z" transform="translate(-2283.917 -2738.57)" fill="#fff"/>
</svg>
