<svg id="icon-whatsapp" xmlns="http://www.w3.org/2000/svg" xmlns:xlink="http://www.w3.org/1999/xlink" width="50.5" height="50.5" viewBox="0 0 50.5 50.5">
  <defs>
    <clipPath id="clip-path">
      <rect id="Rectangle_4033" data-name="Rectangle 4033" width="28.536" height="28.787" fill="none"/>
    </clipPath>
  </defs>
  <g id="Group_14533" data-name="Group 14533" transform="translate(11.222 11.222)">
    <g id="Group_14532" data-name="Group 14532" transform="translate(0 0)" clip-path="url(#clip-path)">
      <path id="Path_21860" data-name="Path 21860" d="M25.615,22.532c-.294-.144-.584-.294-.879-.435-.639-.306-1.275-.619-1.921-.908-.49-.219-.622-.167-.937.259s-.672.859-1.036,1.265a.5.5,0,0,1-.672.15,12.112,12.112,0,0,1-1.555-.763,10,10,0,0,1-3.263-3.287c-.29-.455-.27-.6.089-1a4.471,4.471,0,0,0,.815-1.1.742.742,0,0,0,.02-.63c-.349-.835-.711-1.664-1.035-2.508-.225-.585-.579-.916-1.2-.8a1.468,1.468,0,0,0-1.363.486c-.079.09-.163.176-.24.268a3.935,3.935,0,0,0-.907,3.2,5.966,5.966,0,0,0,.836,2.253,19.856,19.856,0,0,0,1.519,2.169,18.359,18.359,0,0,0,1.535,1.689,12.639,12.639,0,0,0,6.062,3.182,3.717,3.717,0,0,0,3.46-.751,2.477,2.477,0,0,0,.483-.481,3.225,3.225,0,0,0,.48-1.8.466.466,0,0,0-.292-.466" transform="translate(-4.506 -5.003)" fill="#fff"/>
      <path id="Path_21861" data-name="Path 21861" d="M14.268,0A14.266,14.266,0,0,0,1.962,21.486L0,28.787,7.519,26.84A14.269,14.269,0,1,0,14.268,0m9.138,21.686a11.64,11.64,0,0,1-8.118,4.421,11.657,11.657,0,0,1-7.26-1.692.711.711,0,0,0-.611-.077c-1.273.345-2.548.678-3.822,1.014-.083.022-.168.036-.312.066.111-.416.208-.783.308-1.148.269-.977.536-1.953.812-2.928a.568.568,0,0,0-.078-.517,11.391,11.391,0,0,1-1.31-2.651,11.718,11.718,0,0,1-.546-2.451A11.524,11.524,0,0,1,4.108,8.23,11.5,11.5,0,0,1,12.2,2.708a11.761,11.761,0,0,1,13.556,9.246,11.329,11.329,0,0,1-.844,7.311,13.724,13.724,0,0,1-1.509,2.421" transform="translate(0 0)" fill="#fff"/>
    </g>
  </g>
  <circle id="Ellipse_301" data-name="Ellipse 301" cx="25.25" cy="25.25" r="25.25" fill="none"/>
</svg>
