<svg id="icon-feacbook" xmlns="http://www.w3.org/2000/svg" width="50.5" height="50.5" viewBox="0 0 50.5 50.5">
  <circle id="Ellipse_383" data-name="Ellipse 383" cx="25.25" cy="25.25" r="25.25" fill="none"/>
  <path id="Path_21862" data-name="Path 21862" d="M2257.1,2757.133a2.84,2.84,0,0,1,2.221-2.8,4.154,4.154,0,0,1,.947-.107l1.612.007v-3.184l-.681-.094c-.271-.039-.542-.078-.8-.106a9.661,9.661,0,0,0-3.339.09,4.843,4.843,0,0,0-3.608,3.159,7.463,7.463,0,0,0-.448,2.575c-.01.856-.012,1.715-.013,2.571l.006,1.049a.79.79,0,0,1-.137.59.814.814,0,0,1-.673.278c-.6-.008-1.2-.009-1.8-.006h-1.654v3.874h1.73c.579,0,1.158,0,1.757-.007a.791.791,0,0,1,.563.2.906.906,0,0,1,.227.651q-.009,4.731,0,9.456l-.021,1.85h4.1v-11.316a.866.866,0,0,1,.207-.609.757.757,0,0,1,.608-.219c.514.007,1.031.007,1.544,0h1.618l.566-3.866-3.791,0a.706.706,0,0,1-.551-.2.8.8,0,0,1-.205-.585v-1.273C2257.082,2758.477,2257.082,2757.816,2257.1,2757.133Z" transform="translate(-2229.651 -2738.044)" fill="#fff"/>
</svg>
