<svg id="icon-instagram" xmlns="http://www.w3.org/2000/svg" width="50.5" height="50.5" viewBox="0 0 50.5 50.5">
  <circle id="Ellipse_299" data-name="Ellipse 299" cx="25.25" cy="25.25" r="25.25" transform="translate(0 0)" fill="none"/>
  <g id="Group_10150" data-name="Group 10150" transform="translate(11.374 11.222)">
    <path id="Path_12717" data-name="Path 12717" d="M2364.6,2803.508c-2.372,0-4.747.045-7.118-.009-3.94-.091-6.447-2.469-6.532-6.395q-.157-7.323,0-14.652c.08-3.791,2.243-5.987,6.024-6.23,2.156-.138,4.326-.069,6.488-.054,3,.021,6-.145,9,.08a6,6,0,0,1,5.781,6.1q.109,7.569,0,15.141a6,6,0,0,1-6.035,5.985c-2.533.082-5.07.016-7.605.016Zm-.059-22.288a8.564,8.564,0,1,0,8.7,8.6A8.606,8.606,0,0,0,2364.541,2781.22Zm10.954-.385a1.989,1.989,0,0,0-2.034-2.021,2.02,2.02,0,0,0-1.983,2.018,1.981,1.981,0,0,0,2.047,2A1.959,1.959,0,0,0,2375.5,2780.835Z" transform="translate(-2350.873 -2776.129)" fill="#fff"/>
    <path id="Path_12718" data-name="Path 12718" d="M2368.99,2788.7a5.542,5.542,0,1,1-5.539-5.552A5.549,5.549,0,0,1,2368.99,2788.7Z" transform="translate(-2349.787 -2775.045)" fill="#fff"/>
  </g>
</svg>
